<svg width="41" height="35" viewBox="0 0 41 35" fill="none" xmlns="http://www.w3.org/2000/svg">
<path d="M16 4.5V0.5C16 0.1 15.3333 0 15 0H10C3.2 0.4 0.5 7.16667 0 10.5V31C0 33.8 3 34.8333 4.5 35H16C18 35 18.8333 32.3333 19 31V19C19 16.6 16.3333 16 15 16H8.5C6.9 16 6.5 14.6667 6.5 14V11C6.5 8.2 9.83333 6.5 11.5 6H15C15.8 6 16 5 16 4.5Z" fill="#D5AF6D"/>
<path d="M38 4.5V0.5C38 0.1 37.3333 0 37 0H32C25.2 0.4 22.5 7.16667 22 10.5V31C22 33.8 25 34.8333 26.5 35H38C40 35 40.8333 32.3333 41 31V19C41 16.6 38.3333 16 37 16H30.5C28.9 16 28.5 14.6667 28.5 14V11C28.5 8.2 31.8333 6.5 33.5 6H37C37.8 6 38 5 38 4.5Z" fill="#D5AF6D"/>
</svg>
